<svg width="12" height="12" viewBox="0 0 12 12" fill="none" xmlns="http://www.w3.org/2000/svg">
<g id="typcn:shopping-cart">
<path id="Vector" d="M10.1718 2.72247C10.128 2.6722 10.074 2.63188 10.0134 2.60422C9.95276 2.57657 9.88689 2.56223 9.82023 2.56216H3.3944L3.30372 2.02128C3.28567 1.91278 3.22969 1.81419 3.14574 1.74306C3.06178 1.67193 2.9553 1.63286 2.84523 1.63281H1.79898C1.67566 1.63281 1.55738 1.68177 1.47018 1.76891C1.38298 1.85606 1.33398 1.97425 1.33398 2.09749C1.33398 2.22072 1.38298 2.33892 1.47018 2.42606C1.55738 2.5132 1.67566 2.56216 1.79898 2.56216H2.45138L3.31628 7.74977L3.3372 7.80739L3.36231 7.87756L3.41811 7.96074L3.46229 8.01278L3.55203 8.07319L3.60411 8.10339C3.65819 8.12598 3.71616 8.13781 3.77477 8.13824H8.89023C9.01356 8.13824 9.13183 8.08928 9.21904 8.00214C9.30624 7.915 9.35523 7.79681 9.35523 7.67357C9.35523 7.55033 9.30624 7.43214 9.21904 7.34499C9.13183 7.25785 9.01356 7.20889 8.89023 7.20889H4.16909L4.0919 6.74422H9.35523C9.46713 6.74424 9.57528 6.70393 9.65984 6.6307C9.7444 6.55746 9.79969 6.45622 9.81558 6.34553L10.2806 3.09282C10.29 3.0269 10.2852 2.95973 10.2664 2.89585C10.2476 2.83196 10.2154 2.77284 10.1718 2.72247ZM9.28409 3.49151L9.15156 4.42085H7.49523V3.49151H9.28409ZM7.03023 3.49151V4.42085H5.63523V3.49151H7.03023ZM7.03023 4.88553V5.81487H5.63523V4.88553H7.03023ZM5.17023 3.49151V4.42085H3.77523L3.70641 4.43479L3.54924 3.49151H5.17023ZM3.78174 4.88553H5.17023V5.81487H3.93659L3.78174 4.88553ZM7.49523 5.81487V4.88553H9.0846L8.95208 5.81487H7.49523Z" fill="white"/>
<path id="Vector_2" d="M4.47289 9.99705C4.85811 9.99705 5.17039 9.68499 5.17039 9.30004C5.17039 8.91509 4.85811 8.60303 4.47289 8.60303C4.08767 8.60303 3.77539 8.91509 3.77539 9.30004C3.77539 9.68499 4.08767 9.99705 4.47289 9.99705Z" fill="white"/>
<path id="Vector_3" d="M8.65746 9.99705C9.04268 9.99705 9.35496 9.68499 9.35496 9.30004C9.35496 8.91509 9.04268 8.60303 8.65746 8.60303C8.27224 8.60303 7.95996 8.91509 7.95996 9.30004C7.95996 9.68499 8.27224 9.99705 8.65746 9.99705Z" fill="white"/>
</g>
</svg>
