<svg width="82" height="77" viewBox="0 0 82 77" fill="none" xmlns="http://www.w3.org/2000/svg">
<path d="M81.5 38.5C81.5 59.4577 63.3976 76.5 41 76.5C18.6024 76.5 0.5 59.4577 0.5 38.5C0.5 17.5423 18.6024 0.5 41 0.5C63.3976 0.5 81.5 17.5423 81.5 38.5Z" stroke="#1E122E"/>
<path fill-rule="evenodd" clip-rule="evenodd" d="M32.5661 22.975H68.4921L47.1536 35.5997L32.6398 27.0117C33.1925 25.735 33.1971 24.2914 32.5661 22.975ZM23.1705 30.3022L28.4072 27.5507C29.9615 26.734 30.4768 24.9916 29.5673 23.632L24.8399 16.5649C24.355 15.8397 23.6206 15.3734 22.6743 15.1889C21.728 15.0043 20.8331 15.1531 20.0342 15.6279L11.4125 20.751C7.30826 33.2304 25.7507 60.2484 39.8947 63.327L49.3462 59.4448C50.2221 59.0847 50.819 58.4907 51.1072 57.691C51.3954 56.8914 51.2941 56.11 50.8091 55.3847L46.0817 48.3176C45.1723 46.9574 43.1659 46.4719 41.5695 47.2255L36.1899 49.7635C30.8696 45.6802 24.6083 36.3198 23.1705 30.3022ZM71.1019 24.5986L48.0071 38.2621C47.4669 38.5801 46.7726 38.5557 46.2705 38.2439L30.9387 29.1732C30.6485 29.3992 30.33 29.6048 29.9845 29.7865L26.6726 31.5266C28.4125 36.3732 32.7181 42.8094 36.7118 46.5332L40.1145 44.9277C43.1547 43.4937 46.9766 44.4189 48.7093 47.008L51.6409 51.3906H68.7178C70.0662 51.3906 71.1697 50.4388 71.1697 49.2745V25.0905C71.169 24.9212 71.1454 24.7565 71.1019 24.5986Z" fill="#1E122E"/>
</svg>
