<svg width="17" height="16" viewBox="0 0 17 16" fill="none" xmlns="http://www.w3.org/2000/svg">
<path d="M1.84375 1.35547H15.3438C15.5675 1.35547 15.7821 1.43449 15.9404 1.57514C16.0986 1.71579 16.1875 1.90656 16.1875 2.10547V3.29497C16.1875 3.49386 16.0985 3.6846 15.9403 3.82522L10.5285 8.63572C10.3702 8.77634 10.2813 8.96707 10.2812 9.16597V13.8947C10.2812 14.0087 10.252 14.1212 10.1957 14.2237C10.1395 14.3261 10.0577 14.4158 9.95659 14.486C9.85548 14.5561 9.73771 14.6048 9.61223 14.6284C9.48676 14.6521 9.35688 14.6499 9.23247 14.6222L7.54497 14.2472C7.36251 14.2066 7.20056 14.1129 7.08483 13.9811C6.96911 13.8493 6.90625 13.6869 6.90625 13.5197V9.16597C6.9062 8.96707 6.81728 8.77634 6.65903 8.63572L1.24722 3.82522C1.08897 3.6846 1.00005 3.49386 1 3.29497V2.10547C1 1.90656 1.08889 1.71579 1.24713 1.57514C1.40536 1.43449 1.61997 1.35547 1.84375 1.35547Z" stroke="#0E0F12" stroke-width="1.5" stroke-linecap="round" stroke-linejoin="round"/>
</svg>
