<svg width="45" height="49" viewBox="0 0 45 49" fill="none" xmlns="http://www.w3.org/2000/svg">
<g id="basil:gmail-outline">
<path id="Vector" d="M11.2041 14.1259C10.9938 14.0011 10.7576 13.9386 10.5187 13.9443C10.2798 13.95 10.0464 14.0238 9.84117 14.1584C9.63597 14.2931 9.46607 14.484 9.34806 14.7125C9.23006 14.9411 9.16801 15.1993 9.16797 15.4621V34.6962C9.16797 35.099 9.31344 35.4852 9.57238 35.77C9.83133 36.0547 10.1825 36.2147 10.5487 36.2147C10.9149 36.2147 11.2661 36.0547 11.5251 35.77C11.784 35.4852 11.9295 35.099 11.9295 34.6962V18.0051L21.8599 23.8846C22.2686 24.1276 22.762 24.1276 23.1707 23.8846L33.1012 18.0051V34.6962C33.1012 35.099 33.2467 35.4852 33.5056 35.77C33.7646 36.0547 34.1158 36.2147 34.482 36.2147C34.8482 36.2147 35.1994 36.0547 35.4583 35.77C35.7173 35.4852 35.8627 35.099 35.8627 34.6962V15.4621C35.8627 15.1993 35.8006 14.9411 35.6826 14.7125C35.5646 14.484 35.3947 14.2931 35.1895 14.1584C34.9843 14.0238 34.7508 13.95 34.5119 13.9443C34.273 13.9386 34.0369 14.0011 33.8266 14.1259L22.5153 20.8234L11.2041 14.1259Z" fill="white"/>
<path id="Vector_2" fill-rule="evenodd" clip-rule="evenodd" d="M32.291 7.81306C25.7868 7.17323 19.2436 7.17323 12.7394 7.81306L9.94477 8.08639C8.48905 8.22934 7.11965 8.90775 6.05772 10.012C4.99579 11.1163 4.30333 12.582 4.09217 14.1725C3.175 21.0695 3.175 28.0766 4.09217 34.9736C4.30379 36.564 4.99668 38.0295 6.05895 39.1334C7.12122 40.2373 8.49084 40.9152 9.94661 41.0577L12.7376 41.333C19.2437 41.9728 25.7867 41.9728 32.2929 41.333L35.0857 41.0577C36.5411 40.9148 37.9103 40.2367 38.9722 39.1328C40.0341 38.0289 40.7268 36.5637 40.9383 34.9736C41.8555 28.0766 41.8555 21.0695 40.9383 14.1725C40.7271 12.5817 40.0343 11.1158 38.972 10.0115C37.9097 8.90712 36.5399 8.22891 35.0839 8.08639L32.291 7.81306ZM12.9861 10.8379C19.3274 10.2129 25.7068 10.2129 32.048 10.8379L34.8408 11.1132C35.6781 11.195 36.4658 11.5848 37.0768 12.2196C37.6878 12.8544 38.0863 13.6972 38.2081 14.6118C39.0865 21.2175 39.0865 27.9286 38.2081 34.5343C38.0863 35.4489 37.6878 36.2917 37.0768 36.9265C36.4658 37.5613 35.6781 37.9511 34.8408 38.0329L32.048 38.3082C25.7076 38.9318 19.3266 38.9318 12.9861 38.3082L10.1933 38.0329C9.35607 37.9511 8.56834 37.5613 7.95736 36.9265C7.34638 36.2917 6.94783 35.4489 6.82608 34.5343C5.94765 27.9286 5.94765 21.2175 6.82608 14.6118C6.94783 13.6972 7.34638 12.8544 7.95736 12.2196C8.56834 11.5848 9.35607 11.195 10.1933 11.1132L12.9861 10.8379Z" fill="white"/>
</g>
</svg>
