<svg width="14" height="14" viewBox="0 0 14 14" fill="none" xmlns="http://www.w3.org/2000/svg">
<g id="linkedin">
<path id="Vector" d="M9.33337 4.6665C10.2616 4.6665 11.1519 5.03525 11.8082 5.69163C12.4646 6.34801 12.8334 7.23825 12.8334 8.1665V12.2498H10.5V8.1665C10.5 7.85708 10.3771 7.56034 10.1583 7.34155C9.93954 7.12275 9.64279 6.99984 9.33337 6.99984C9.02395 6.99984 8.72721 7.12275 8.50842 7.34155C8.28962 7.56034 8.16671 7.85708 8.16671 8.1665V12.2498H5.83337V8.1665C5.83337 7.23825 6.20212 6.34801 6.8585 5.69163C7.51488 5.03525 8.40512 4.6665 9.33337 4.6665Z" stroke="white" stroke-width="0.5" stroke-linecap="round" stroke-linejoin="round"/>
<path id="Vector_2" d="M3.49996 5.25H1.16663V12.25H3.49996V5.25Z" stroke="white" stroke-width="0.5" stroke-linecap="round" stroke-linejoin="round"/>
<path id="Vector_3" d="M2.33329 3.49984C2.97762 3.49984 3.49996 2.9775 3.49996 2.33317C3.49996 1.68884 2.97762 1.1665 2.33329 1.1665C1.68896 1.1665 1.16663 1.68884 1.16663 2.33317C1.16663 2.9775 1.68896 3.49984 2.33329 3.49984Z" stroke="white" stroke-width="0.5" stroke-linecap="round" stroke-linejoin="round"/>
</g>
</svg>
