<svg width="45" height="50" viewBox="0 0 45 50" fill="none" xmlns="http://www.w3.org/2000/svg">
<g id="fluent:location-20-regular">
<path id="Vector" d="M29.144 22.8271C29.144 24.7602 28.4457 26.6141 27.2028 27.981C25.9598 29.3479 24.2741 30.1158 22.5163 30.1158C20.7585 30.1158 19.0728 29.3479 17.8298 27.981C16.5869 26.6141 15.8886 24.7602 15.8886 22.8271C15.8886 20.894 16.5869 19.0401 17.8298 17.6732C19.0728 16.3063 20.7585 15.5384 22.5163 15.5384C24.2741 15.5384 25.9598 16.3063 27.2028 17.6732C28.4457 19.0401 29.144 20.894 29.144 22.8271ZM26.9347 22.8271C26.9347 21.5383 26.4692 20.3024 25.6406 19.3911C24.812 18.4799 23.6881 17.9679 22.5163 17.9679C21.3444 17.9679 20.2206 18.4799 19.392 19.3911C18.5634 20.3024 18.0978 21.5383 18.0978 22.8271C18.0978 24.1158 18.5634 25.3517 19.392 26.263C20.2206 27.1743 21.3444 27.6862 22.5163 27.6862C23.6881 27.6862 24.812 27.1743 25.6406 26.263C26.4692 25.3517 26.9347 24.1158 26.9347 22.8271ZM33.4519 34.8656C36.3524 31.6741 37.9818 27.3466 37.9818 22.8344C37.9818 18.3221 36.3524 13.9946 33.4519 10.8031C32.0159 9.2237 30.311 7.97082 28.4347 7.11603C26.5583 6.26125 24.5473 5.82129 22.5163 5.82129C20.4853 5.82129 18.4742 6.26125 16.5979 7.11603C14.7215 7.97082 13.0167 9.2237 11.5806 10.8031C8.68014 13.9946 7.05078 18.3221 7.05078 22.8344C7.05078 27.3466 8.68014 31.6741 11.5806 34.8656L14.9409 38.5075L19.4543 43.3302L19.7481 43.6169C21.4603 45.1427 23.9677 45.0455 25.5805 43.3302L30.9599 37.5721L33.4519 34.8656ZM13.1381 12.516C14.3692 11.1606 15.8311 10.0854 17.4403 9.35181C19.0495 8.61821 20.7743 8.24062 22.5163 8.24062C24.2582 8.24062 25.9831 8.61821 27.5923 9.35181C29.2015 10.0854 30.6634 11.1606 31.8944 12.516C34.3119 15.178 35.7017 18.7636 35.7742 22.525C35.8466 26.2864 34.5961 29.9335 32.2833 32.7057L31.8944 33.1527L28.9761 36.3209L24.0495 41.5906L23.8418 41.785C23.4592 42.1001 22.9939 42.2701 22.5159 42.2697C22.0379 42.2693 21.5729 42.0983 21.1908 41.7826L20.9853 41.5882L14.4018 34.5303L13.1381 33.1527L12.7493 32.7081C10.4365 29.9359 9.18596 26.2889 9.2584 22.5274C9.33084 18.766 10.7207 15.178 13.1381 12.516Z" fill="white"/>
</g>
</svg>
