<svg width="45" height="49" viewBox="0 0 45 49" fill="none" xmlns="http://www.w3.org/2000/svg">
<g id="ph:phone-light">
<path id="Vector" d="M38.6702 30.5457L30.5168 26.5274C30.1473 26.3534 29.7443 26.2834 29.344 26.3238C28.9438 26.3642 28.5591 26.5138 28.2247 26.759C28.1908 26.7831 28.1585 26.8097 28.128 26.8387L23.8667 30.8247C23.8224 30.8513 23.7732 30.8661 23.7229 30.8681C23.6726 30.87 23.6225 30.8591 23.5767 30.8361C20.8376 29.3822 18.0001 26.2807 16.6729 23.3102C16.6508 23.2605 16.6393 23.206 16.6393 23.1507C16.6393 23.0955 16.6508 23.0409 16.6729 22.9913L20.3095 18.246C20.3356 18.211 20.3598 18.1742 20.382 18.1359C20.6018 17.7668 20.7346 17.3432 20.7684 16.9034C20.8021 16.4637 20.7358 16.0216 20.5753 15.6172L16.9473 6.66572C16.7413 6.1373 16.385 5.69663 15.9319 5.40983C15.4787 5.12303 14.9533 5.00558 14.4343 5.07511C12.1789 5.4012 10.1086 6.61929 8.61029 8.50175C7.11201 10.3842 6.28826 12.8022 6.29299 15.304C6.29299 30.1661 17.2873 42.257 30.8015 42.257C33.0763 42.2618 35.2748 41.3557 36.9865 39.7081C38.6981 38.0604 39.8058 35.7839 40.1027 33.3037C40.1658 32.7356 40.0604 32.1603 39.8023 31.6634C39.5442 31.1665 39.1471 30.7745 38.6702 30.5457ZM30.8015 39.9793C18.4299 39.9793 8.36413 28.9096 8.36413 15.304C8.35836 13.3564 8.99757 11.4731 10.1623 10.006C11.3271 8.53891 12.9377 7.58836 14.6932 7.33195H14.7329C14.8025 7.33338 14.87 7.35788 14.9267 7.40225C14.9833 7.44662 15.0265 7.50879 15.0505 7.5806L18.6922 16.5226C18.713 16.5723 18.7238 16.6263 18.7238 16.681C18.7238 16.7358 18.713 16.7898 18.6922 16.8395L15.0488 21.5962C15.0217 21.6303 14.9969 21.6664 14.9745 21.7044C14.7465 22.0871 14.6123 22.5282 14.5848 22.9847C14.5573 23.4413 14.6374 23.898 14.8175 24.3105C16.3484 27.7574 19.5069 31.2044 22.6757 32.888C23.053 33.0849 23.4703 33.1709 23.8868 33.1377C24.3033 33.1044 24.7049 32.953 25.0524 32.6982C25.0852 32.6735 25.118 32.6469 25.149 32.6184L29.4087 28.6324C29.4508 28.6076 29.4972 28.593 29.5449 28.5897C29.5925 28.5865 29.6403 28.5945 29.6848 28.6135L37.84 32.6317C37.9066 32.6629 37.9626 32.7164 38.0001 32.7845C38.0376 32.8526 38.0546 32.932 38.0488 33.0114C37.8169 34.9429 36.9534 36.7155 35.6196 37.9978C34.2858 39.2801 32.5731 39.9845 30.8015 39.9793Z" fill="white"/>
</g>
</svg>
